<?xml version="1.0" encoding="UTF-8"?>
<svg
  xmlns="http://www.w3.org/2000/svg"
  viewBox="0 0 120 24"
  width="120"
  height="24"
>
  <!-- Full stars -->
  <g fill="#605471">
    <path d="M12 2.5l2.9 6 6.6.9-4.8 4.6 1.2 6.6L12 17.8l-5.9 3.1 1.2-6.6L2.5 9.4l6.6-.9L12 2.5z"/>
    <path d="M36 2.5l2.9 6 6.6.9-4.8 4.6 1.2 6.6L36 17.8l-5.9 3.1 1.2-6.6-4.8-4.6 6.6-.9L36 2.5z"/>
    <path d="M60 2.5l2.9 6 6.6.9-4.8 4.6 1.2 6.6L60 17.8l-5.9 3.1 1.2-6.6-4.8-4.6 6.6-.9L60 2.5z"/>
    <path d="M84 2.5l2.9 6 6.6.9-4.8 4.6 1.2 6.6L84 17.8l-5.9 3.1 1.2-6.6-4.8-4.6 6.6-.9L84 2.5z"/>
  </g>

  <!-- Clip for 90% star -->
  <defs>
    <clipPath id="clip-90">
      <rect x="96" y="0" width="21.6" height="24"/>
    </clipPath>
  </defs>

  <!-- Empty star -->
  <path
    d="M108 2.5l2.9 6 6.6.9-4.8 4.6 1.2 6.6-5.9-3.1-5.9 3.1 1.2-6.6-4.8-4.6 6.6-.9 2.9-6z"
    fill="#e6e6e6"
  />

  <!-- Filled 90% -->
  <path
    d="M108 2.5l2.9 6 6.6.9-4.8 4.6 1.2 6.6-5.9-3.1-5.9 3.1 1.2-6.6-4.8-4.6 6.6-.9 2.9-6z"
    fill="#605471"
    clip-path="url(#clip-90)"
  />
</svg>
